# xmcd
#
# Track frame offsets:
#	150
#	6962
#	20542
#	36551
#	53069
#	68516
#	81842
#	98072
#	115789
#	130637
#	149556
#
# Disc length: 2086 seconds
#
# Revision: 1
# Processed by: cddbd v1.5.2PL0 Copyright (c) Steve Scherf et al.
# Submitted via: audiograbber 1.83.01
#
DISCID=8e08240b
DTITLE=Maureen Brown - Be Close
DYEAR=1997
DGENRE=Blues
TTITLE0=Big Hand (Pt. 2)
TTITLE1=Something Intelligent
TTITLE2=Bad Boy
TTITLE3=I'm a Woman
TTITLE4=Bad Thing
TTITLE5=Have You Been to New Orleans?
TTITLE6=Hot Summer Nights
TTITLE7=Down to the Quarter
TTITLE8=Temple of Love
TTITLE9=Down the Road
TTITLE10=Big Hand (Pt. 1)
EXTD=
EXTT0=
EXTT1=
EXTT2=
EXTT3=
EXTT4=
EXTT5=
EXTT6=
EXTT7=
EXTT8=
EXTT9=
EXTT10=
PLAYORDER=
